<svg xmlns="http://www.w3.org/2000/svg" xmlns:xlink="http://www.w3.org/1999/xlink" viewBox="0 0 57 57"><defs><linearGradient id="a" x1="26.87" y1="419.86" x2="40.81" y2="378.75" gradientTransform="matrix(1, 0, 0, -1, 0, 427.3)" gradientUnits="userSpaceOnUse"><stop offset="0" stop-color="#f5d45e"/><stop offset="1" stop-color="#ff9600"/></linearGradient><linearGradient id="b" x1="22.69" y1="418.44" x2="36.63" y2="377.33" xlink:href="#a"/><linearGradient id="c" x1="19.48" y1="417.35" x2="33.42" y2="376.24" xlink:href="#a"/></defs><rect width="57" height="57" rx="9" fill="#202b31"/><path d="M34.2,12.3c.1.1,0,.2-.1.2a4.2,4.2,0,0,0-4.3,4.2,5.3,5.3,0,0,0-2.5,0A4.2,4.2,0,0,0,23,12.5c-.1,0-.2-.1-.1-.2a6.6,6.6,0,0,1,11.3,0Z" fill="url(#a)"/><path d="M41.6,26.7a.7.7,0,0,0,1-.9c-2.1-6.1-8.9-8.6-14.1-8.6s-12.1,2.6-14,8.6a.7.7,0,0,0,.9.9l12.7-3.9h.7Z" fill="url(#b)"/><path d="M14.5,27.7l13.6-4.1a.9.9,0,0,1,.7,0l13.7,4.1a2.7,2.7,0,0,1,1.9,2.5V42.5a5.7,5.7,0,0,1-5.7,5.4h-5a.9.9,0,0,1-.9-.9V42.7a4.3,4.3,0,0,1,2.5-3.9c2.1-.9,4.6-2.1,5.1-4.6a1.5,1.5,0,0,0-1.2-1.7,9.8,9.8,0,0,0-6.1.6c-2.2.9-2.7,2.5-2.9,4.7l-.3,2.3a1.4,1.4,0,0,1-1.4,1.2A1.3,1.3,0,0,1,27.1,40l-.3-2.2c-.1-1.9-.5-3.6-2.3-4.5a10.4,10.4,0,0,0-6.7-.8,1.5,1.5,0,0,0-1.2,1.7c.5,2.5,3,3.7,5.1,4.6a4.3,4.3,0,0,1,2.5,3.9V47a.9.9,0,0,1-.9.9h-5a5.7,5.7,0,0,1-5.7-5.4V30.2A2.7,2.7,0,0,1,14.5,27.7Z" fill="url(#c)"/></svg>