<svg
    width="32"
    height="28"
    viewBox="0 0 18 14"
    xmlns="http://www.w3.org/2000/svg"
  >
    <path
      fill-rule="evenodd"
      clip-rule="evenodd"
      d="M1.5 0.4375C0.982233 0.4375 0.5625 0.857233 0.5625 1.375V12C0.5625 12.4144 0.72712 12.8118 1.02015 13.1049C1.31317 13.3979 1.7106 13.5625 2.125 13.5625H15.875C16.2894 13.5625 16.6868 13.3979 16.9799 13.1049C17.2729 12.8118 17.4375 12.4144 17.4375 12V1.375C17.4375 0.857233 17.0178 0.4375 16.5 0.4375H1.5ZM2.4375 3.50616V11.6875H15.5625V3.50616L9.63349 8.94108C9.27507 9.26964 8.72493 9.26964 8.36651 8.94108L2.4375 3.50616ZM14.0899 2.3125H3.91013L9 6.97822L14.0899 2.3125Z"
      fill="#fff"
    />
  </svg>
