<?xml version="1.0" standalone="no"?>
<!DOCTYPE svg PUBLIC "-//W3C//DTD SVG 20010904//EN"
 "http://www.w3.org/TR/2001/REC-SVG-20010904/DTD/svg10.dtd">
<svg version="1.0" xmlns="http://www.w3.org/2000/svg"
 width="1400.000000pt" height="1400.000000pt" viewBox="0 0 1400.000000 1400.000000"
 preserveAspectRatio="xMidYMid meet">
<metadata>
Created by potrace 1.14, written by Peter Selinger 2001-2017
</metadata>
<g transform="translate(0.000000,1400.000000) scale(0.100000,-0.100000)"
fill="#000000" stroke="none">
<path d="M718 13185 c-6 -54 -1 -588 6 -670 3 -27 7 -68 10 -90 3 -22 8 -69
12 -105 3 -36 8 -68 10 -71 2 -3 6 -33 10 -65 8 -84 58 -331 100 -497 90 -360
271 -817 442 -1117 53 -94 115 -196 136 -225 12 -16 27 -41 34 -55 12 -24 228
-320 241 -330 3 -3 26 -30 51 -60 25 -30 59 -71 76 -90 18 -19 47 -51 64 -70
126 -138 281 -285 430 -410 24 -19 51 -42 61 -51 10 -8 30 -24 45 -35 15 -10
34 -27 43 -36 8 -10 21 -18 28 -18 7 0 13 -3 13 -7 1 -5 23 -24 51 -43 28 -19
62 -45 77 -57 15 -13 32 -23 39 -23 6 0 13 -4 15 -8 4 -10 96 -72 108 -72 4 0
10 -3 12 -7 4 -11 86 -63 98 -63 5 0 10 -4 10 -9 0 -5 10 -13 23 -17 12 -4 24
-9 27 -13 7 -8 38 -27 80 -48 19 -9 38 -22 42 -27 5 -7 8 -7 8 -1 0 6 3 5 8
-1 8 -12 83 -53 93 -50 4 0 15 -6 25 -15 11 -9 82 -47 159 -83 77 -37 152 -73
166 -81 14 -8 29 -12 33 -8 3 3 6 1 6 -5 0 -7 3 -11 8 -10 4 1 18 -4 32 -10
103 -44 245 -103 248 -102 1 0 10 -4 20 -10 20 -12 -54 -6 -188 15 -14 3 -43
7 -65 10 -22 4 -56 10 -75 15 -19 5 -48 12 -65 14 -51 9 -76 15 -95 21 -10 3
-28 8 -39 10 -41 10 -58 14 -191 55 -74 22 -139 42 -145 44 -5 2 -17 6 -25 9
-45 17 -116 42 -120 43 -3 0 -22 8 -44 17 -21 9 -43 17 -48 17 -5 0 -31 11
-58 25 -28 14 -50 23 -50 20 0 -2 -20 7 -45 21 -25 13 -45 23 -45 20 0 -6
-328 161 -398 203 -29 17 -57 31 -62 31 -6 0 -10 4 -10 8 0 4 -22 19 -50 33
-27 13 -50 27 -50 32 0 4 -7 7 -15 7 -8 0 -15 5 -15 10 0 6 -6 10 -13 10 -8 0
-22 9 -32 20 -10 11 -24 20 -32 20 -7 0 -13 5 -13 10 0 6 -6 10 -13 10 -8 0
-22 9 -32 20 -10 11 -23 20 -30 20 -6 0 -22 11 -35 25 -13 14 -28 25 -32 25
-5 0 -16 6 -23 13 -8 6 -20 17 -27 22 -104 79 -145 111 -154 120 -6 5 -29 25
-52 43 -48 39 -68 57 -176 155 -97 88 -206 197 -294 296 -37 41 -76 84 -87 95
-17 18 -65 77 -155 189 -8 11 -19 24 -25 31 -5 6 -25 31 -43 56 -18 25 -51 70
-73 100 -54 73 -197 290 -240 364 -19 32 -42 72 -53 90 -44 74 -188 349 -232
444 -26 56 -49 101 -51 99 -1 -2 6 -53 17 -113 12 -60 22 -118 24 -129 3 -18
30 -153 41 -200 32 -148 119 -457 182 -650 169 -519 399 -1010 658 -1405 74
-113 211 -302 255 -349 8 -9 33 -39 55 -66 22 -28 53 -64 70 -81 16 -17 51
-53 76 -80 60 -64 194 -190 248 -234 24 -19 51 -42 60 -51 9 -8 41 -33 71 -54
30 -22 64 -48 74 -57 11 -10 32 -24 48 -30 15 -7 28 -16 28 -20 0 -5 7 -8 15
-8 8 0 15 -4 15 -10 0 -5 7 -10 15 -10 8 0 15 -4 15 -8 0 -5 12 -15 28 -22 15
-8 39 -22 53 -32 14 -10 29 -15 33 -11 3 3 6 1 6 -5 0 -7 5 -12 10 -12 6 0 28
-11 49 -24 21 -14 42 -22 45 -19 3 4 6 1 6 -5 0 -7 3 -11 8 -10 4 1 36 -13 72
-30 65 -32 65 -41 0 -22 -19 6 -48 13 -65 16 -16 2 -38 7 -47 10 -9 3 -25 7
-35 9 -10 2 -45 11 -78 20 -58 16 -114 32 -145 39 -61 16 -323 102 -400 131
-52 20 -115 43 -140 51 -25 9 -70 27 -100 41 -30 14 -63 27 -72 28 -9 2 -29
12 -44 22 -16 10 -31 18 -34 17 -3 -1 -39 15 -80 34 -41 20 -78 35 -82 34 -5
-1 -8 3 -8 8 0 6 -9 10 -19 10 -11 0 -21 4 -23 9 -2 5 -10 11 -18 13 -8 2 -17
6 -20 9 -3 3 -27 17 -55 30 -56 29 -117 62 -157 87 -15 9 -60 37 -99 61 -40
24 -77 48 -83 53 -6 5 -42 32 -81 59 -157 113 -321 262 -428 389 -72 86 9 -36
173 -258 36 -49 79 -106 95 -127 17 -20 52 -65 79 -99 26 -33 58 -72 70 -86
11 -14 31 -37 42 -52 20 -26 99 -118 139 -163 11 -12 47 -53 80 -90 103 -117
184 -203 351 -369 202 -202 256 -252 457 -428 22 -18 49 -42 62 -53 12 -11 40
-33 60 -50 21 -16 43 -35 49 -40 6 -6 29 -24 51 -40 22 -17 45 -34 51 -40 6
-5 27 -21 47 -35 20 -14 37 -28 37 -32 0 -5 5 -8 11 -8 6 0 17 -7 26 -15 18
-18 126 -95 154 -110 11 -5 19 -13 19 -17 0 -5 6 -8 14 -8 8 0 16 -3 18 -7 4
-11 127 -93 137 -93 5 0 11 -4 13 -8 4 -11 135 -92 148 -92 5 0 10 -4 10 -9 0
-5 8 -11 18 -14 9 -4 40 -20 67 -36 28 -17 66 -38 85 -48 19 -9 37 -20 40 -23
3 -4 68 -37 145 -74 77 -38 161 -79 188 -92 26 -13 47 -21 47 -18 0 4 10 0 23
-8 24 -16 133 -61 142 -59 3 1 19 -6 36 -15 17 -8 38 -17 47 -20 10 -2 68 -21
130 -43 61 -21 112 -37 112 -34 0 2 8 -1 19 -6 21 -12 268 -76 325 -85 21 -4
41 -8 45 -10 3 -2 30 -7 60 -11 30 -4 63 -9 75 -11 11 -2 38 -6 61 -9 22 -4
51 -8 65 -10 38 -6 138 -16 205 -20 80 -6 414 -6 442 -1 26 5 28 -3 48 -179
25 -227 25 -702 1 -895 -2 -14 -7 -56 -10 -93 -4 -37 -9 -78 -12 -90 -2 -12
-7 -42 -10 -67 -3 -25 -8 -54 -10 -65 -2 -10 -6 -35 -9 -55 -6 -40 -7 -45 -30
-150 -9 -41 -18 -82 -20 -91 -2 -9 -8 -33 -13 -53 -6 -20 -8 -36 -6 -36 3 0 0
-8 -5 -18 -6 -11 -13 -32 -16 -48 -6 -31 -9 -41 -17 -64 -11 -30 -62 -195 -64
-205 -2 -12 -51 -138 -71 -183 -8 -18 -16 -41 -18 -51 -2 -10 -8 -27 -14 -37
-25 -45 -75 -160 -73 -166 1 -5 -2 -8 -8 -8 -6 0 -9 -3 -8 -7 2 -11 -12 -43
-39 -85 -13 -21 -20 -38 -16 -38 5 0 3 -4 -3 -8 -5 -4 -18 -23 -27 -42 -10
-19 -31 -57 -48 -85 -17 -27 -33 -58 -36 -67 -3 -10 -9 -18 -14 -18 -5 0 -9
-5 -9 -10 0 -6 -16 -33 -35 -60 -19 -27 -35 -54 -35 -60 0 -5 -4 -10 -10 -10
-5 0 -10 -5 -10 -10 0 -6 -11 -23 -25 -38 -14 -15 -25 -31 -25 -35 0 -5 -6
-14 -12 -21 -7 -8 -20 -24 -28 -36 -8 -12 -20 -28 -25 -34 -6 -6 -24 -29 -40
-51 -17 -22 -32 -42 -35 -45 -98 -97 322 141 601 341 121 86 268 203 358 284
76 68 304 299 341 344 19 24 42 51 51 60 8 9 29 34 45 56 16 22 31 42 34 45
25 23 160 226 160 240 0 6 4 10 8 10 5 0 23 29 40 65 18 35 37 67 42 70 6 4 8
11 5 16 -4 5 -1 9 6 9 7 0 10 3 6 6 -3 4 10 35 29 70 19 35 32 64 29 64 -3 0
2 11 11 25 9 14 13 25 10 25 -4 0 1 11 10 25 9 14 14 25 11 25 -4 0 2 20 13
45 17 40 42 121 55 180 11 46 16 71 20 85 2 8 4 21 4 29 1 23 9 8 16 -29 3
-19 28 -125 56 -235 59 -234 55 -216 62 -235 3 -8 27 -80 53 -160 53 -159 128
-316 190 -398 42 -54 102 -169 157 -297 31 -74 156 -409 161 -435 2 -8 6 -22
9 -30 10 -23 91 -282 125 -400 52 -177 111 -428 136 -575 3 -16 17 -95 31
-175 26 -150 79 -510 91 -615 3 -33 8 -69 10 -79 2 -10 4 -47 5 -82 1 -35 5
-64 8 -64 4 0 7 10 8 23 0 21 9 112 19 192 2 22 7 58 9 80 3 22 7 54 9 70 2
17 9 66 15 111 6 44 13 90 15 101 3 11 7 44 11 74 4 30 8 56 10 59 2 3 6 25 9
50 3 25 8 56 11 70 2 13 7 40 10 60 5 35 10 61 20 110 2 14 7 39 10 55 6 36
13 71 20 105 7 31 14 59 19 85 3 11 12 49 21 85 9 36 18 74 20 85 2 11 4 21 5
23 3 2 4 5 14 47 5 17 21 75 38 130 16 55 31 105 32 110 2 6 11 37 21 70 11
33 19 62 20 65 0 3 3 10 7 16 4 6 9 22 12 36 2 15 9 35 14 45 6 10 10 21 11
26 1 4 2 9 2 12 1 3 3 10 4 15 1 6 4 12 5 15 1 3 4 10 5 15 1 6 4 12 5 15 1 3
3 8 4 13 1 4 6 21 13 37 27 72 75 201 77 210 2 6 8 23 14 38 7 16 12 30 12 31
0 2 8 21 17 42 9 22 17 41 18 44 0 3 8 19 18 36 9 17 13 34 10 38 -4 3 0 6 7
6 7 0 11 3 8 6 -3 3 12 37 33 76 21 39 39 73 39 75 0 2 6 10 13 17 6 8 19 24
27 36 8 12 20 28 26 34 21 22 88 158 121 246 12 30 25 64 29 75 4 11 8 22 8
25 1 3 4 10 8 16 4 6 9 21 12 35 2 13 11 44 19 69 16 47 65 225 72 261 2 11 7
29 10 39 3 10 8 28 10 39 3 12 7 29 9 38 14 59 26 112 31 143 3 19 7 36 9 37
1 1 16 -53 33 -121 87 -343 283 -712 533 -1000 152 -176 369 -387 511 -498 16
-12 46 -38 67 -55 20 -18 40 -33 43 -33 3 0 15 -8 27 -17 11 -10 30 -25 42
-33 12 -8 28 -21 36 -27 7 -7 17 -13 22 -13 6 0 12 -4 14 -8 4 -11 217 -152
229 -152 5 0 9 -4 9 -9 0 -5 8 -11 18 -14 17 -6 72 -37 82 -47 8 -8 82 -49
130 -72 25 -12 47 -26 48 -30 2 -5 8 -6 13 -2 5 3 9 0 9 -6 0 -6 5 -8 10 -5 6
3 10 2 10 -3 0 -6 7 -12 15 -16 8 -3 15 -2 15 3 0 8 -69 100 -97 129 -7 7 -13
17 -13 21 0 4 -8 16 -18 27 -49 52 -272 405 -272 430 0 7 -4 14 -8 16 -4 1
-26 39 -49 83 -135 263 -270 629 -337 915 -35 149 -67 308 -72 355 -3 22 -9
65 -14 95 -5 30 -12 85 -15 122 -3 37 -7 75 -9 85 -24 126 -24 680 -1 883 3
19 7 55 9 80 12 101 15 107 58 103 97 -9 446 -2 538 12 19 2 60 7 90 10 89 9
330 54 431 81 52 13 108 27 124 30 59 12 357 114 492 169 344 140 737 360
1098 616 65 45 307 229 315 238 3 3 37 32 75 63 71 58 81 67 190 161 110 96
189 171 375 357 207 208 373 387 502 541 72 87 78 94 85 104 5 6 24 29 43 51
39 46 47 56 160 204 43 58 83 110 88 115 4 6 28 39 52 75 25 36 47 67 50 70 3
3 17 22 33 42 32 44 37 74 5 32 -53 -68 -236 -242 -333 -316 -5 -4 -23 -18
-40 -31 -62 -49 -224 -156 -343 -226 -384 -227 -975 -456 -1482 -575 -162 -38
-173 -40 -166 -27 4 6 14 11 22 11 20 0 159 70 279 142 131 77 137 81 153 96
7 6 23 17 35 24 22 11 89 62 115 85 7 7 16 13 20 13 4 0 25 17 48 38 23 20 68
60 100 88 99 86 254 246 334 344 19 24 42 50 50 59 8 9 35 44 60 76 25 33 50
65 55 72 26 31 32 40 52 73 12 20 33 49 47 65 14 17 26 36 26 43 0 6 4 12 9
12 5 0 11 8 15 18 7 21 25 49 49 76 9 11 17 23 17 26 0 4 25 48 55 98 30 50
55 96 55 101 0 4 7 14 15 21 8 7 13 16 10 20 -3 5 -1 11 4 14 8 6 143 273 192
381 49 109 71 161 74 170 2 9 18 52 32 85 3 8 7 17 7 20 1 3 8 16 16 30 7 14
13 26 12 27 -2 3 0 7 28 85 12 32 21 60 20 63 0 3 7 19 15 35 8 16 15 32 15
35 1 5 1 8 21 70 7 22 13 42 14 45 0 3 3 10 6 15 4 6 10 24 14 40 5 17 10 35
11 40 10 31 46 152 49 165 2 8 14 49 25 90 12 41 24 83 26 93 2 9 6 25 8 35
49 200 55 226 62 272 3 19 8 38 10 41 2 3 6 21 9 40 3 19 8 41 10 49 2 8 7 33
10 55 3 23 8 52 11 65 19 93 13 94 -32 5 -25 -49 -47 -94 -48 -100 -5 -21 -30
-71 -44 -87 -9 -10 -11 -18 -6 -18 5 0 4 -4 -1 -8 -6 -4 -24 -34 -40 -67 -17
-33 -32 -62 -35 -65 -4 -3 -14 -23 -25 -45 -10 -22 -24 -46 -32 -53 -7 -7 -13
-20 -13 -28 0 -8 -4 -14 -8 -14 -10 0 -37 -50 -34 -62 1 -5 -2 -8 -7 -8 -5 0
-12 -8 -15 -17 -8 -21 -18 -38 -74 -121 -23 -35 -42 -68 -42 -73 0 -5 -4 -9
-10 -9 -5 0 -10 -7 -10 -15 0 -8 -4 -15 -10 -15 -5 0 -10 -5 -10 -11 0 -6 -6
-17 -12 -24 -28 -31 -38 -44 -38 -50 0 -4 -6 -12 -12 -19 -7 -8 -20 -24 -28
-36 -8 -12 -20 -28 -25 -34 -6 -6 -22 -27 -35 -46 -29 -41 -33 -46 -63 -81
-12 -14 -33 -40 -47 -59 -29 -38 -43 -55 -108 -129 -155 -179 -364 -387 -497
-495 -33 -27 -64 -54 -70 -60 -5 -6 -35 -30 -66 -53 -31 -23 -62 -47 -70 -55
-53 -50 -314 -226 -479 -322 -63 -37 -122 -72 -130 -77 -8 -5 -96 -49 -195
-98 -420 -208 -841 -342 -1285 -411 -173 -27 -190 -25 -100 12 41 16 80 31 85
33 6 1 26 9 45 18 19 8 78 34 130 57 453 199 902 473 1240 754 135 113 137
115 296 267 87 83 215 221 309 334 27 33 54 65 60 71 5 7 19 24 30 40 11 15
26 33 33 40 6 7 12 15 12 19 0 3 5 11 10 18 6 7 24 28 40 47 16 19 30 41 30
48 0 6 5 12 10 12 6 0 10 4 10 10 0 5 18 33 40 62 22 29 40 59 40 66 0 6 5 12
10 12 6 0 10 6 10 14 0 8 3 16 8 18 9 4 82 126 82 138 0 5 3 10 8 12 4 2 18
23 31 48 38 71 158 304 159 310 2 11 44 107 57 130 7 14 14 28 14 33 0 4 8 24
17 45 9 20 17 42 18 47 1 6 4 15 7 20 5 8 30 76 34 95 1 3 4 12 8 20 23 56 95
293 104 339 2 13 8 31 12 40 5 9 12 30 15 46 3 17 10 50 15 75 6 25 13 56 15
70 3 14 8 36 11 50 6 26 12 57 20 100 3 14 7 34 9 45 2 11 7 40 11 65 3 25 9
59 11 75 10 58 21 147 30 240 3 39 9 84 11 100 9 58 11 660 3 680 -6 13 -9
-13 -10 -75 -1 -52 -3 -102 -4 -110 -2 -8 -7 -49 -11 -90 -9 -93 -12 -118 -20
-150 -3 -14 -8 -41 -11 -60 -6 -38 -33 -144 -58 -230 -9 -30 -18 -60 -19 -67
-2 -7 -6 -16 -10 -19 -4 -4 -7 -13 -7 -20 0 -7 -5 -25 -12 -41 -6 -15 -12 -30
-13 -33 -1 -3 -6 -16 -12 -30 -24 -55 -36 -85 -37 -90 -4 -16 -158 -313 -167
-320 -3 -3 -15 -20 -25 -39 -37 -66 -96 -155 -106 -159 -5 -2 -8 -10 -8 -17 0
-7 -3 -15 -7 -17 -7 -3 -41 -46 -97 -122 -11 -15 -29 -37 -40 -50 -12 -13 -36
-42 -55 -65 -109 -135 -352 -378 -521 -521 -29 -25 -58 -50 -64 -55 -6 -6 -33
-28 -61 -50 -27 -22 -52 -42 -55 -45 -8 -9 -227 -171 -305 -225 -266 -187
-610 -394 -960 -575 -88 -45 -166 -87 -172 -93 -7 -5 -13 -7 -13 -4 0 4 -44
-15 -97 -42 -54 -26 -152 -72 -218 -101 -66 -29 -145 -64 -175 -77 -268 -121
-1011 -390 -993 -359 6 10 34 48 83 110 8 11 26 31 40 46 14 15 43 46 65 70
l40 43 -60 -38 c-51 -32 -320 -229 -335 -245 -3 -3 -21 -17 -40 -31 -19 -15
-47 -37 -61 -50 -15 -13 -44 -38 -66 -56 -37 -30 -67 -57 -164 -149 -69 -65
-161 -164 -205 -219 -39 -50 -49 -62 -71 -89 -7 -8 -13 -19 -13 -25 0 -5 -4
-11 -8 -13 -12 -4 -72 -95 -72 -107 0 -6 -4 -11 -10 -11 -5 0 -10 -5 -10 -10
0 -6 -11 -28 -25 -50 -14 -22 -22 -40 -19 -40 4 0 -1 -9 -11 -20 -10 -11 -14
-20 -10 -20 4 0 1 -8 -8 -17 -8 -10 -16 -21 -16 -26 0 -4 -11 -31 -24 -60 -24
-50 -39 -87 -41 -97 -1 -3 -8 -16 -16 -30 -7 -14 -13 -27 -12 -30 0 -3 -8 -25
-20 -50 -11 -25 -21 -49 -22 -55 -1 -5 -10 -24 -19 -41 -9 -17 -13 -34 -10
-38 4 -3 0 -6 -7 -6 -7 0 -11 -3 -7 -6 3 -4 -4 -25 -16 -48 -13 -22 -45 -95
-71 -161 -26 -66 -55 -132 -63 -147 -8 -16 -11 -28 -7 -28 3 0 2 -6 -3 -12 -5
-7 -17 -35 -27 -63 -10 -27 -21 -59 -26 -70 -5 -11 -21 -56 -36 -100 -15 -44
-38 -111 -51 -150 -14 -38 -26 -77 -28 -85 -2 -8 -12 -42 -23 -75 -27 -83 -60
-195 -89 -302 -2 -7 -4 -19 -6 -25 -2 -7 -9 -33 -16 -58 -7 -25 -15 -53 -17
-62 -2 -10 -6 -27 -9 -38 -10 -41 -16 -66 -20 -85 -5 -20 -10 -42 -20 -87 -3
-13 -7 -34 -10 -48 -3 -14 -7 -36 -10 -50 -3 -14 -8 -40 -11 -59 -3 -18 -8
-43 -10 -55 -19 -97 -26 -357 -11 -454 9 -60 45 -188 67 -237 114 -255 140
-337 146 -469 3 -71 -6 -139 -23 -186 -4 -8 -5 -18 -5 -23 1 -4 -3 -7 -10 -7
-6 0 -9 -3 -5 -6 3 -3 2 -11 -3 -18 -27 -32 -80 -107 -80 -112 0 -2 -8 -14
-18 -25 -11 -10 -25 -32 -33 -47 -8 -15 -16 -29 -19 -32 -17 -17 -117 -215
-126 -250 -2 -8 -15 -49 -29 -90 -24 -68 -37 -125 -38 -157 -1 -29 -15 0 -21
42 -21 158 -152 429 -298 619 -57 74 -80 145 -82 251 -1 98 5 142 29 222 9 29
16 55 16 58 0 5 24 63 61 143 12 26 22 49 23 52 1 3 9 23 19 45 10 22 19 47
21 55 2 8 8 26 13 40 5 14 10 28 10 33 1 8 9 48 18 87 14 54 13 326 -1 415
-77 491 -333 1322 -556 1803 -22 48 -72 164 -111 257 -117 285 -214 457 -346
620 -36 44 -72 87 -81 96 -9 9 -32 34 -52 55 -60 65 -233 226 -305 284 -11 8
-39 31 -64 50 -25 19 -47 37 -50 40 -12 13 -181 140 -186 140 -3 0 -12 6 -19
13 -32 28 -78 61 -144 102 -9 6 -19 15 -23 20 -5 7 -8 7 -8 0 0 -6 8 -18 18
-26 9 -9 38 -40 64 -70 25 -30 60 -69 76 -88 16 -19 37 -47 47 -64 17 -28 17
-29 -1 -19 -11 6 -22 10 -26 11 -5 1 -9 1 -10 2 -2 0 -10 2 -18 4 -20 4 -181
59 -247 84 -29 10 -53 17 -53 15 0 -2 -18 5 -40 16 -21 11 -47 22 -57 23 -10
2 -31 9 -48 16 -32 13 -127 49 -160 61 -11 4 -45 18 -75 30 -30 12 -64 26 -75
30 -11 5 -36 15 -55 23 -39 17 -92 40 -100 42 -3 1 -32 14 -65 29 -33 15 -64
29 -70 30 -5 1 -29 12 -51 24 -23 11 -44 18 -48 15 -3 -4 -6 0 -6 7 0 7 -3 11
-6 7 -4 -3 -30 7 -58 22 -28 16 -54 29 -59 30 -12 1 -388 190 -403 202 -8 6
-14 8 -14 4 0 -5 -8 -1 -18 8 -10 9 -40 26 -67 38 -28 12 -52 25 -55 29 -3 3
-18 13 -35 22 -78 40 -121 64 -133 75 -7 7 -24 16 -38 19 -13 3 -24 10 -24 15
0 5 -5 9 -11 9 -6 0 -30 14 -54 30 -24 17 -48 30 -54 30 -6 0 -11 5 -11 10 0
6 -5 10 -11 10 -6 0 -45 23 -86 50 -41 28 -78 50 -82 50 -4 0 -16 9 -26 20
-10 11 -24 20 -31 20 -7 0 -14 3 -16 8 -5 11 -66 52 -78 52 -5 0 -10 5 -10 10
0 6 -7 10 -15 10 -8 0 -15 4 -15 8 0 4 -15 16 -32 27 -18 10 -35 21 -38 25 -3
3 -30 23 -60 45 -30 22 -57 42 -60 45 -3 3 -32 25 -65 50 -57 42 -84 64 -109
85 -6 6 -36 30 -66 55 -30 25 -60 49 -66 55 -6 5 -42 37 -79 70 -126 111 -331
320 -430 440 -28 33 -53 62 -56 65 -35 29 -259 355 -326 475 -79 142 -197 409
-219 495 -2 8 -15 53 -29 100 -53 174 -84 361 -94 570 -5 104 -8 123 -13 85z"/>
<path d="M6995 811 c-3 -5 -2 -12 3 -15 5 -3 9 1 9 9 0 17 -3 19 -12 6z"/>
</g>
</svg>
