<?xml version="1.0" standalone="no"?>
<!DOCTYPE svg PUBLIC "-//W3C//DTD SVG 20010904//EN"
 "http://www.w3.org/TR/2001/REC-SVG-20010904/DTD/svg10.dtd">
<svg version="1.0" xmlns="http://www.w3.org/2000/svg"
 width="1024.000000pt" height="1024.000000pt" viewBox="0 0 1024.000000 1024.000000"
 preserveAspectRatio="xMidYMid meet">
<metadata>
Created by potrace 1.14, written by Peter Selinger 2001-2017
</metadata>
<g transform="translate(0.000000,1024.000000) scale(0.100000,-0.100000)"
fill="#000000" stroke="none">
<path d="M8460 8364 c-1 -414 -68 -634 -303 -989 -134 -202 -299 -385 -445
-493 -88 -65 -187 -120 -198 -109 -4 4 40 55 98 114 259 267 395 515 473 868
23 105 27 144 28 315 1 126 -2 202 -9 213 -8 15 -12 -10 -17 -110 -5 -126 -11
-158 -49 -298 -38 -138 -191 -399 -345 -590 -295 -366 -661 -581 -1228 -721
-77 -19 -147 -37 -155 -41 -8 -3 -19 -5 -24 -4 -4 1 -14 -3 -22 -10 -7 -6 -18
-8 -24 -4 -5 3 -10 1 -10 -5 0 -8 -9 -10 -26 -6 -18 5 -24 3 -19 -4 5 -8 -1
-10 -16 -8 -13 2 -23 9 -22 15 2 7 -4 10 -15 7 -10 -3 -7 2 8 13 42 30 90 80
90 95 -1 8 -4 7 -11 -5 -6 -9 -14 -15 -20 -12 -5 4 -9 1 -9 -4 0 -6 -4 -10 -9
-9 -5 2 -17 -6 -26 -17 -9 -11 -14 -13 -10 -5 4 8 -1 6 -9 -4 -9 -11 -23 -21
-31 -22 -20 -3 -139 -100 -212 -173 -120 -119 -241 -295 -312 -453 -252 -562
-360 -936 -348 -1201 5 -120 12 -146 86 -315 62 -141 55 -193 -47 -335 -71
-97 -78 -110 -106 -195 -13 -36 -27 -67 -33 -69 -10 -4 -14 3 -53 115 -13 34
-49 104 -81 154 -104 161 -104 216 -4 453 60 141 65 248 23 445 -59 276 -112
432 -277 819 -79 184 -118 261 -133 261 -6 0 -9 3 -5 6 8 9 -21 64 -33 64 -6
0 -9 4 -7 9 1 5 -7 17 -18 26 -11 9 -13 14 -5 10 8 -4 6 1 -4 9 -11 9 -16 16
-10 16 5 0 -4 12 -21 26 -16 14 -23 22 -15 19 8 -4 -1 8 -20 25 -19 17 -28 29
-20 25 8 -3 -3 10 -25 29 -22 20 -46 34 -53 31 -7 -3 -10 0 -7 5 4 6 -3 22
-14 36 -14 18 -21 22 -21 11 0 -8 6 -18 13 -20 7 -4 8 -6 1 -6 -7 -1 -19 10
-28 24 -9 14 -22 22 -30 19 -8 -3 -17 0 -22 7 -4 7 -3 10 4 5 6 -3 13 -2 16 3
3 5 -8 7 -25 6 -23 -2 -29 1 -25 12 3 8 0 20 -6 27 -11 11 -15 11 -24 -2 -8
-10 -17 -13 -30 -7 -10 4 -23 9 -29 10 -42 6 -104 29 -99 37 3 5 -6 6 -22 2
-21 -5 -25 -4 -19 6 6 10 3 12 -13 8 -12 -3 -22 -3 -24 1 -2 4 -64 24 -138 46
-201 57 -327 106 -505 195 -215 108 -319 184 -495 360 -152 152 -251 281 -370
479 -127 213 -166 336 -179 559 -5 79 -11 145 -14 148 -12 12 -19 -140 -14
-276 8 -199 28 -314 81 -474 87 -260 177 -404 425 -675 57 -63 99 -117 93
-119 -25 -8 -161 85 -290 196 -154 133 -375 431 -491 661 -108 213 -172 547
-157 818 5 79 3 123 -3 123 -19 0 -26 -97 -26 -345 1 -336 25 -458 148 -751
93 -221 179 -357 341 -538 165 -184 553 -482 785 -601 41 -21 96 -57 121 -80
108 -96 331 -222 478 -270 58 -19 61 -39 4 -29 -89 16 -524 176 -708 260 -181
82 -229 106 -329 164 -158 91 -244 158 -376 291 -231 235 -583 731 -646 913
l-18 51 -3 -43 c-4 -55 36 -212 82 -320 98 -233 404 -665 605 -854 131 -122
384 -311 418 -311 7 0 13 -4 13 -9 0 -4 9 -8 20 -8 11 0 23 -6 26 -14 3 -8 12
-12 20 -9 7 3 17 -2 20 -11 5 -13 9 -14 20 -5 12 10 13 8 8 -6 -5 -13 -4 -16
4 -11 7 4 12 2 12 -5 0 -7 10 -5 28 6 l27 18 -20 -23 c-11 -13 -14 -20 -8 -16
7 4 13 3 13 -3 0 -6 6 -8 14 -5 7 3 16 -2 19 -10 4 -9 13 -13 22 -10 8 4 17
-1 21 -10 5 -13 10 -14 27 -4 20 10 21 10 8 -5 -12 -15 -11 -17 5 -18 11 -1
22 -1 27 0 4 0 7 -3 7 -7 0 -12 109 -58 264 -112 124 -43 168 -70 113 -70 -46
0 -381 61 -493 90 -272 70 -630 246 -863 424 -213 162 -337 310 -438 522 -24
51 -46 94 -47 94 -4 0 9 -66 23 -117 20 -71 109 -263 153 -327 103 -153 246
-311 408 -450 104 -90 221 -176 239 -176 6 0 11 -4 11 -10 0 -5 7 -10 15 -10
8 0 15 -4 15 -9 0 -4 10 -7 23 -7 26 2 59 -22 50 -37 -3 -6 -1 -7 5 -3 6 4 9
13 6 20 -3 8 -1 17 5 21 6 3 11 11 11 18 0 6 -7 2 -16 -9 -14 -18 -14 -18 -3
5 11 22 13 23 24 8 6 -9 15 -14 18 -10 4 3 7 1 7 -6 0 -7 5 -9 10 -6 6 3 10 2
10 -3 0 -5 6 -9 14 -9 21 0 76 -24 76 -34 0 -5 7 -6 15 -3 8 4 15 1 15 -5 0
-6 3 -10 8 -9 4 1 31 -4 61 -11 36 -9 49 -16 40 -22 -10 -6 -5 -10 19 -15 18
-4 35 -11 38 -15 3 -5 9 -7 14 -4 4 2 22 0 40 -6 23 -9 28 -14 18 -20 -9 -6
-2 -9 21 -9 19 0 32 -3 29 -6 -8 -7 -129 7 -124 15 2 3 -10 6 -27 7 -67 2
-115 9 -110 17 2 4 -3 7 -11 7 -9 0 -16 -4 -16 -10 0 -17 -37 -11 -169 24
-170 46 -253 80 -541 218 -189 91 -326 184 -444 300 -43 43 -81 78 -83 78 -11
0 55 -105 101 -162 75 -93 259 -265 374 -351 287 -214 562 -329 891 -372 127
-17 421 -19 560 -4 56 6 106 9 113 6 25 -8 -235 -126 -425 -193 -251 -88 -546
-125 -687 -88 -53 14 -3 -16 65 -40 141 -49 226 -60 435 -61 165 0 212 4 305
23 138 29 260 70 396 133 99 46 149 60 149 41 0 -13 -111 -100 -235 -185 -226
-155 -427 -241 -589 -253 -70 -6 -84 -9 -69 -18 11 -7 80 -11 183 -10 191 0
278 16 456 83 117 44 217 98 354 191 104 70 147 93 160 85 17 -10 12 -18 -66
-115 -239 -299 -481 -519 -569 -520 -11 0 -27 -5 -35 -11 -11 -8 1 -9 45 -4
73 7 149 28 138 39 -4 4 0 4 10 0 10 -3 17 -1 17 6 0 6 4 8 10 5 18 -11 155
62 255 137 121 90 240 215 312 326 29 45 56 82 59 82 10 0 -5 -51 -43 -140
-106 -252 -276 -543 -380 -648 -47 -48 -64 -71 -50 -67 46 13 77 28 77 37 0 5
5 6 10 3 5 -3 10 -2 10 4 0 6 10 15 21 22 15 8 19 8 15 0 -15 -24 8 -9 42 27
20 20 30 28 22 17 -8 -11 21 14 64 55 90 87 154 172 213 285 23 44 43 75 43
69 1 -34 -127 -406 -203 -590 -120 -290 -166 -377 -255 -483 l-46 -53 35 17
c19 9 42 27 52 39 10 11 15 14 11 6 -4 -9 -3 -12 2 -7 5 5 9 14 9 20 0 7 7 12
16 12 9 0 29 15 44 33 15 17 30 30 35 27 10 -6 32 20 23 29 -4 3 -24 -11 -46
-31 -24 -23 -35 -30 -29 -17 6 11 18 27 27 34 9 8 29 32 45 55 15 22 40 47 54
54 14 8 26 20 26 28 0 7 4 13 9 13 6 0 8 -10 6 -21 -3 -12 -1 -18 3 -15 4 4 8
12 8 17 1 5 2 13 3 19 0 5 6 9 12 7 6 -1 13 7 15 18 1 10 13 28 26 38 13 10
16 16 8 12 -8 -4 -4 2 9 13 13 10 21 24 17 30 -4 6 2 8 14 5 37 -10 32 -60
-30 -298 -74 -281 -171 -539 -274 -725 -26 -46 -45 -84 -43 -86 4 -4 202 258
202 267 0 5 9 15 20 24 11 9 13 13 5 9 -12 -7 -13 -5 -3 8 7 8 10 18 6 22 -4
4 0 4 9 1 9 -4 19 -1 24 6 5 8 3 10 -6 4 -10 -6 -11 -4 -4 6 8 14 9 18 12 50
1 8 10 24 20 35 10 10 19 23 19 27 4 26 68 135 76 130 6 -4 7 -1 2 7 -7 12 44
135 53 126 2 -2 -1 -13 -6 -23 -8 -15 -6 -22 10 -32 11 -7 17 -8 13 -2 -3 6 0
11 7 11 9 0 9 3 -2 10 -13 8 -12 10 3 10 10 0 16 4 13 9 -8 12 4 42 14 36 11
-7 20 22 13 42 -4 10 -2 14 4 10 7 -4 21 20 36 61 60 165 85 286 98 492 5 85
16 178 24 205 14 50 14 50 8 -46 -3 -53 0 -136 6 -185 6 -49 16 -125 22 -169
28 -226 40 -263 184 -560 130 -271 200 -458 236 -634 7 -33 17 -57 21 -55 5 3
6 -6 2 -20 -4 -16 -2 -26 5 -26 6 0 8 -12 4 -32 -5 -24 -3 -29 7 -23 9 5 11 0
8 -21 -3 -16 -3 -23 -1 -16 6 16 13 15 35 -5 18 -16 18 -16 12 2 -5 12 -4 16
3 12 17 -11 16 279 -1 393 -8 52 -23 136 -34 185 -33 152 -40 195 -29 202 6 3
7 1 3 -5 -4 -7 -3 -12 3 -12 6 0 7 -7 4 -17 -4 -10 -2 -14 4 -10 12 7 58 -130
69 -208 4 -27 10 -41 12 -30 2 11 17 64 33 119 16 54 29 100 29 101 0 1 7 2
15 2 22 0 22 -7 0 -92 -35 -132 -57 -307 -62 -479 -4 -131 -3 -177 6 -172 6 4
11 0 11 -11 0 -14 2 -15 9 -4 6 10 11 6 20 -15 9 -26 10 -23 6 21 -4 39 -2 45
5 25 8 -22 9 -20 5 13 -2 25 0 35 7 31 8 -5 9 3 5 25 -4 18 -3 30 1 27 5 -3
17 30 27 72 46 197 101 344 244 651 127 272 158 361 186 541 13 84 35 295 35
343 0 24 -17 21 -25 -4 -10 -31 -20 -13 -40 78 -14 63 -17 103 -12 173 6 84
21 139 34 126 8 -7 40 -169 58 -288 8 -56 15 -147 15 -202 0 -56 7 -141 15
-191 18 -113 70 -298 84 -303 6 -2 9 -8 5 -13 -3 -5 0 -9 6 -9 7 0 10 -7 6
-15 -3 -8 -1 -15 5 -15 6 0 7 -4 4 -10 -6 -9 7 -14 27 -11 4 0 5 -6 1 -15 -5
-14 -3 -15 15 -5 15 8 22 8 22 1 0 -5 -7 -10 -15 -10 -8 0 -15 -5 -15 -11 0
-6 8 -8 19 -4 12 4 20 0 24 -12 7 -26 140 -293 161 -325 10 -15 15 -32 11 -38
-4 -6 -1 -18 7 -27 11 -14 11 -16 -2 -9 -8 4 -4 -2 10 -14 14 -12 19 -18 11
-14 -9 5 -7 -2 5 -18 10 -14 22 -24 25 -22 3 2 6 -3 6 -10 0 -13 166 -240 183
-251 5 -3 -31 72 -79 167 -57 114 -105 227 -139 330 -59 175 -172 614 -172
666 0 45 17 38 53 -24 16 -27 33 -51 38 -52 5 -2 7 -8 3 -13 -3 -5 8 -21 23
-36 15 -14 21 -23 13 -19 -8 4 -6 0 5 -9 11 -9 19 -21 17 -27 -2 -8 2 -7 11 0
12 10 14 8 12 -13 -4 -31 8 -40 25 -20 11 14 15 14 31 -1 10 -9 15 -22 12 -30
-5 -13 -8 -12 -23 1 -17 15 -18 15 -16 1 1 -9 20 -31 42 -49 21 -17 33 -24 26
-15 -9 11 -10 18 -2 23 5 3 11 4 11 1 5 -22 4 -32 -3 -42 -4 -6 5 -22 25 -40
28 -26 29 -26 9 -3 -16 18 -20 29 -13 34 7 3 10 3 9 -2 -6 -17 68 -95 121
-129 73 -45 81 -43 33 8 -107 113 -164 228 -313 633 -90 245 -122 346 -112
356 5 5 28 -21 57 -65 26 -41 74 -104 107 -140 61 -66 151 -144 134 -116 -4 8
4 2 18 -13 15 -15 32 -25 37 -22 6 3 10 1 10 -5 0 -13 97 -60 125 -60 l20 1
-20 14 c-126 90 -129 94 -353 530 -76 149 -142 282 -146 298 -10 41 10 33 40
-16 70 -112 100 -150 181 -233 49 -50 122 -115 163 -145 94 -69 206 -133 220
-124 5 3 10 1 10 -5 0 -7 7 -10 15 -6 8 3 15 1 15 -4 0 -5 7 -6 17 -3 10 4 14
2 10 -4 -10 -15 59 -33 148 -39 l80 -4 -66 18 c-126 34 -257 144 -449 377 -49
61 -121 146 -159 190 -38 44 -65 82 -60 83 22 8 59 -11 159 -82 276 -197 555
-295 846 -295 137 -1 224 7 224 19 0 4 -44 10 -98 12 -119 7 -236 44 -391 123
-174 89 -442 273 -449 308 -5 26 22 21 112 -22 132 -64 307 -118 491 -153 96
-18 458 -18 545 1 66 14 173 44 223 63 45 17 31 26 -25 16 -82 -16 -287 -2
-427 27 -121 25 -403 121 -545 185 -39 17 -86 38 -105 47 -20 8 -76 35 -126
58 -49 24 -107 48 -127 55 -21 6 -38 16 -38 21 0 19 188 -27 212 -52 10 -10
48 -28 85 -39 97 -31 530 -40 704 -16 224 31 404 89 614 196 220 112 408 252
585 436 96 100 190 222 190 247 0 5 -39 -28 -87 -74 -101 -97 -277 -217 -408
-279 -295 -139 -387 -176 -555 -223 -69 -20 -140 -38 -157 -42 -38 -8 -62 2
-42 17 11 8 10 9 -3 5 -51 -17 -220 -48 -235 -44 -10 3 -3 5 15 6 17 0 32 5
32 10 0 5 -10 7 -22 4 -19 -5 -21 -3 -10 8 7 7 30 14 51 14 22 0 37 3 35 7 -3
5 2 8 11 8 8 0 18 7 21 15 4 8 10 15 16 15 5 0 6 -4 3 -10 -8 -13 5 -13 25 0
13 9 13 10 0 11 -10 0 -8 3 5 9 28 12 37 12 30 -1 -4 -5 10 -3 31 6 21 8 40
12 43 8 3 -5 12 -9 20 -11 12 -3 12 -1 0 14 -13 16 -12 16 10 5 15 -8 21 -9
17 -2 -4 6 -2 11 4 11 6 0 8 5 4 12 -4 7 -3 8 5 4 6 -4 9 -11 7 -15 -3 -4 5
-6 17 -5 12 1 26 3 30 3 5 1 6 5 3 10 -4 5 4 7 16 3 13 -3 19 -1 15 5 -4 6 4
9 18 7 14 -1 23 2 19 7 -5 8 9 13 29 10 4 0 7 4 7 11 0 6 3 9 6 5 4 -3 32 11
64 33 220 149 478 405 618 611 83 123 183 349 182 413 -1 12 -14 -9 -30 -47
-131 -301 -386 -540 -820 -765 -277 -145 -440 -198 -770 -253 -102 -16 -216
-37 -253 -46 -48 -10 -72 -12 -79 -5 -14 14 20 29 187 82 72 23 139 47 150 54
11 6 52 25 92 40 42 17 70 33 66 39 -4 6 0 8 10 4 10 -4 17 -2 17 4 0 6 7 8
16 5 8 -3 13 -2 10 3 -7 10 22 24 34 16 4 -3 11 2 14 11 4 10 14 14 26 11 13
-3 18 -1 13 6 -4 7 0 8 11 4 11 -5 15 -3 10 5 -5 8 -2 9 10 5 11 -5 15 -3 10
5 -5 8 -2 9 10 5 14 -6 17 -3 12 9 -5 14 -4 15 9 4 11 -9 15 -9 15 -1 0 7 5 9
10 6 6 -3 10 -1 10 5 0 6 5 8 10 5 6 -3 10 -1 10 5 0 6 5 8 10 5 6 -3 10 -1
10 4 0 6 3 10 8 9 20 -6 223 130 344 232 133 110 241 228 376 409 284 381 387
583 420 830 5 34 6 64 2 66 -4 3 -15 -17 -25 -43 -62 -164 -202 -382 -431
-667 -299 -373 -482 -513 -904 -691 -199 -84 -801 -284 -855 -284 -26 0 -8 18
33 31 140 45 393 176 493 254 31 25 85 57 120 72 290 124 750 479 944 728 66
85 190 277 233 360 35 69 108 264 131 349 38 144 61 323 61 486 0 101 -24 337
-35 348 -3 3 -5 -89 -5 -204z m-4650 -1889 c6 3 10 2 10 -3 0 -5 14 -9 30 -10
54 -1 100 -22 100 -44 0 -17 -4 -19 -27 -13 -37 9 -151 64 -159 77 -4 6 2 5
15 -1 12 -7 26 -9 31 -6z m2724 0 c-10 -8 -29 -15 -41 -15 -12 0 -25 -4 -28
-10 -3 -5 -14 -10 -23 -10 -9 0 -29 -7 -44 -14 -16 -8 -42 -17 -59 -20 -16 -2
-35 -9 -42 -14 -7 -5 -34 -14 -61 -21 -27 -7 -67 -22 -90 -34 -22 -11 -43 -21
-46 -22 -9 0 -67 -44 -100 -75 -18 -17 -35 -28 -38 -25 -8 8 49 65 65 65 8 0
12 4 9 9 -13 21 110 93 207 122 39 11 81 25 92 30 18 8 76 21 160 36 17 3 32
7 34 9 2 2 9 4 15 4 5 0 1 -7 -10 -15z m-2369 -35 c3 -6 -1 -7 -9 -4 -18 7
-21 14 -7 14 6 0 13 -4 16 -10z m45 -10 c0 -5 -4 -10 -10 -10 -5 0 -10 5 -10
10 0 6 5 10 10 10 6 0 10 -4 10 -10z m-132 -36 c76 -28 150 -81 242 -173 54
-54 46 -54 -20 2 -8 6 -30 20 -50 31 -19 10 -43 25 -52 33 -20 17 -118 65
-171 82 -59 20 -93 64 -41 55 14 -3 55 -16 92 -30z m-88 -385 l35 -18 -39 -1
c-44 0 -156 27 -171 42 -17 17 137 -3 175 -23z m2461 15 c-25 -8 -74 -17 -109
-20 -53 -6 -64 -5 -60 7 5 15 67 25 158 26 l55 1 -44 -14z m-3471 -354 l25 -8
-25 0 c-14 0 -34 3 -45 8 l-20 9 20 -1 c11 0 31 -4 45 -8z m4327 -66 c-3 -3
-12 -4 -19 -1 -8 3 -5 6 6 6 11 1 17 -2 13 -5z m-2338 -840 c23 -89 28 -189
10 -199 -6 -4 -12 -5 -14 -3 -3 2 -12 54 -20 116 -9 61 -22 133 -30 159 -8 26
-15 57 -15 68 1 40 48 -56 69 -141z m-1776 -31 c-7 -2 -19 -2 -25 0 -7 3 -2 5
12 5 14 0 19 -2 13 -5z m967 -807 c0 -2 -8 -10 -17 -17 -16 -13 -17 -12 -4 4
13 16 21 21 21 13z m2020 -65 c0 -6 -4 -12 -8 -15 -5 -3 -9 1 -9 9 0 8 4 15 9
15 4 0 8 -4 8 -9z m63 -77 c-4 -10 -9 -12 -15 -6 -12 12 -1 35 12 27 5 -3 6
-13 3 -21z m-1902 -137 c-10 -9 -11 -8 -5 6 3 10 9 15 12 12 3 -3 0 -11 -7
-18z"/>
<path d="M4050 6601 c0 -6 7 -14 15 -17 8 -4 15 -12 15 -20 0 -14 39 -44 63
-48 8 -1 21 -7 28 -13 14 -10 54 -14 43 -4 -5 6 -9 7 -35 10 -5 0 -7 6 -3 13
4 7 3 8 -5 4 -6 -4 -14 -1 -17 8 -4 9 -14 13 -31 10 -24 -5 -25 -3 -12 12 8
10 9 15 2 11 -6 -4 -15 -2 -20 5 -14 22 -43 42 -43 29z"/>
<path d="M4124 6501 c4 -5 0 -12 -6 -14 -7 -3 -2 -6 11 -6 20 -1 21 1 11 14
-14 16 -25 21 -16 6z"/>
<path d="M4170 6469 c0 -5 5 -7 10 -4 6 3 10 8 10 11 0 2 -4 4 -10 4 -5 0 -10
-5 -10 -11z"/>
<path d="M2730 5666 c7 -7 13 -7 20 0 6 6 3 10 -10 10 -13 0 -16 -4 -10 -10z"/>
<path d="M6190 3846 c0 -2 8 -10 18 -17 15 -13 16 -12 3 4 -13 16 -21 21 -21
13z"/>
<path d="M4089 3803 c-13 -16 -12 -17 4 -4 16 13 21 21 13 21 -2 0 -10 -8 -17
-17z"/>
<path d="M5900 3613 c0 -5 5 -15 10 -23 7 -12 9 -10 7 8 -1 19 -17 33 -17 15z"/>
<path d="M4291 3533 c-10 -26 -10 -27 4 -9 8 11 15 23 15 28 0 15 -7 8 -19
-19z"/>
<path d="M4316 3535 c-3 -8 0 -17 6 -21 6 -4 8 -3 4 4 -3 5 -1 12 6 14 8 3 9
6 1 11 -6 4 -13 0 -17 -8z"/>
<path d="M5985 3451 c-3 -5 -2 -12 3 -15 5 -3 9 1 9 9 0 17 -3 19 -12 6z"/>
<path d="M6085 3291 c-3 -5 -2 -12 3 -15 5 -3 9 1 9 9 0 17 -3 19 -12 6z"/>
<path d="M5066 2619 c-4 -23 -5 -44 -2 -46 2 -2 7 14 11 37 4 23 5 43 2 46 -2
3 -7 -14 -11 -37z"/>
<path d="M5188 2543 c5 -21 7 -23 10 -9 2 10 0 22 -6 28 -6 6 -7 0 -4 -19z"/>
<path d="M5072 2525 c0 -16 2 -22 5 -12 2 9 2 23 0 30 -3 6 -5 -1 -5 -18z"/>
<path d="M5182 2475 c0 -16 2 -22 5 -12 2 9 2 23 0 30 -3 6 -5 -1 -5 -18z"/>
<path d="M5082 2445 c0 -16 2 -22 5 -12 2 9 2 23 0 30 -3 6 -5 -1 -5 -18z"/>
<path d="M5172 2390 c0 -19 2 -27 5 -17 2 9 2 25 0 35 -3 9 -5 1 -5 -18z"/>
<path d="M5092 2370 c0 -19 2 -27 5 -17 2 9 2 25 0 35 -3 9 -5 1 -5 -18z"/>
<path d="M5162 2300 c0 -19 2 -27 5 -17 2 9 2 25 0 35 -3 9 -5 1 -5 -18z"/>
<path d="M5103 2260 c0 -25 2 -35 4 -22 2 12 2 32 0 45 -2 12 -4 2 -4 -23z"/>
<path d="M5153 2190 c0 -25 2 -35 4 -22 2 12 2 32 0 45 -2 12 -4 2 -4 -23z"/>
<path d="M5113 2155 c0 -27 2 -38 4 -22 2 15 2 37 0 50 -2 12 -4 0 -4 -28z"/>
<path d="M5138 2078 c5 -85 10 -96 11 -23 0 33 -3 66 -7 73 -5 7 -7 -16 -4
-50z"/>
<path d="M5123 1860 c0 -113 3 -252 7 -310 5 -87 7 -68 7 115 1 121 -2 261 -6
310 -6 72 -8 49 -8 -115z"/>
</g>
</svg>
