<?xml version="1.0" ?><svg data-name="Social Media Icons" id="Social_Media_Icons" viewBox="0 0 512 512" xmlns="http://www.w3.org/2000/svg"><defs><style>.cls-1{fill:#009eeb;}</style></defs><path class="cls-1" d="M477,43.86,13.32,223.29a5.86,5.86,0,0,0-.8.38c-3.76,2.13-30,18.18,7,32.57l.38.14,110.41,35.67a6.08,6.08,0,0,0,5.09-.62L409.25,120.57a6,6,0,0,1,2.2-.83c3.81-.63,14.78-1.81,7.84,7-7.85,10-194.9,177.62-215.66,196.21a6.3,6.3,0,0,0-2.07,4.17l-9.06,108a7.08,7.08,0,0,0,2.83,5.67,6.88,6.88,0,0,0,8.17-.62l65.6-58.63a6.09,6.09,0,0,1,7.63-.39l114.45,83.1.37.25c2.77,1.71,32.69,19.12,41.33-19.76l79-375.65c.11-1.19,1.18-14.27-8.17-22-9.82-8.08-23.72-4-25.81-3.56A6,6,0,0,0,477,43.86Z" id="Telegram"/></svg>