<svg
    width="32"
    height="32"
    viewBox="0 0 32 32"
    fill="none"
    xmlns="http://www.w3.org/2000/svg"
  >
    <rect width="32" height="32" rx="8" fill="#FF875B" />
    <path
      d="M18.316 8H13.684C13.5292 8 13.4052 8.1272 13.4018 8.28531C13.3082 12.7296 11.0323 16.9477 7.11513 19.9355C6.99077 20.0303 6.96243 20.2085 7.05335 20.3369L9.76349 24.1654C9.85569 24.2957 10.0353 24.3251 10.1618 24.2294C12.6111 22.3734 14.5812 20.1345 16 17.6529C17.4187 20.1345 19.389 22.3734 21.8383 24.2294C21.9646 24.3251 22.1443 24.2957 22.2366 24.1654L24.9467 20.3369C25.0375 20.2085 25.0092 20.0303 24.885 19.9355C20.9676 16.9477 18.6918 12.7296 18.5983 8.28531C18.5949 8.1272 18.4708 8 18.316 8Z"
      fill="white"
    />
  </svg>